<?xml version="1.0" encoding="UTF-8"?>
<svg id="Layer_1" data-name="Layer 1" xmlns="http://www.w3.org/2000/svg" viewBox="0 0 198.98 159.24">
  <defs>
    <style>
      .cls-1 {
        fill: #fff;
      }
    </style>
  </defs>
  <path class="cls-1" d="m198.44,138.51h0l-22.36-105.97c-2.16-8.36-9.69-14.19-18.33-14.19h-10.42c0,10.12-8.23,18.35-18.35,18.35s-18.35-8.23-18.35-18.35h-22.29c0,10.12-8.23,18.35-18.35,18.35s-18.35-8.23-18.35-18.35h-10.42c-8.63,0-16.17,5.84-18.33,14.19L.54,138.51c-2.72,10.5,5.21,20.73,16.06,20.73h165.79c10.84,0,18.76-10.24,16.06-20.73Zm-56.23-22.22c-25.63,14.98-70.62,14.27-93.44-5.81-6.34-5.87-13.2-13.98-13.04-23,.62-6.38,6.58-10.99,12.88-10.5,5.1.71,8.69,4,10.3,8.83,8.07,14.92,27.47,17.22,42.81,17.06,11.81-.32,24.54-2.42,33.55-10.68,6.96-6.05,4.09-13.11,15.11-15.21h2.26c5.08.91,8.66,3.54,10.19,8.57,2.87,11.4-11.54,25.52-20.63,30.74Z"/>
  <path class="cls-1" d="m51.64,18.35c0-10.12,8.23-18.35,18.35-18.35s18.35,8.23,18.35,18.35m-11.3,0c0-3.89-3.16-7.04-7.04-7.04s-7.04,3.16-7.04,7.04"/>
  <path class="cls-1" d="m110.63,18.35c0-10.11,8.23-18.35,18.35-18.35s18.35,8.23,18.35,18.35m-11.3,0c0-3.89-3.16-7.04-7.04-7.04s-7.04,3.16-7.04,7.04"/>
</svg>